<svg xmlns="http://www.w3.org/2000/svg" viewBox="0 0 298 287" fill="none">
  <path fill="#483030" d="M153.118 265.995c45.313-46.577 89.239-223.46 99.033-264.8155.275-1.1612972 2.02-.876175 2.02.31725V247.495c0 .552-.448 1-1 1H1.29588c-.973255 0-1.3575077 1.22-.547731 1.759C16.8704 261.003 104.736 315.724 153.118 265.995Z"/>
  <path fill="#483030" d="M166.561 248.495c-4.447 6.947-8.937 12.868-13.443 17.5l-.569.578c-47.973 48.197-133.8563-4.45-151.25295-15.958l-.547901-.361c-.7590587-.506-.468938-1.61.372111-1.746l.17562-.013H166.561Zm-154.7816 4c11.9043 7.169 31.9453 17.948 54.1817 24.47 29.5855 8.678 61.6899 9.471 84.2899-13.76l.507-.527c2.752-2.892 5.514-6.307 8.281-10.183H11.7794Zm154.7816-4c40.267-62.916 76.77-210.0724 85.59-247.3155.275-1.1612972 2.02-.876175 2.02.31725V247.495l-.005.102c-.048.47-.422.845-.892.893l-.103.005h-86.61Zm83.61-222.4214c-6.741 26.7393-17.399 66.5836-30.411 106.7874-8.958 27.677-19.053 55.596-29.777 79.556-5.249 11.727-10.693 22.602-16.277 32.078h76.465V26.0736ZM243.662 281.047c-3.435 0-6.164-1.089-8.188-3.266-1.993-2.208-2.99-5.29-2.99-9.246 0-2.392.445-4.524 1.334-6.394.92-1.902 2.193-3.389 3.818-4.462 1.625-1.104 3.511-1.656 5.658-1.656 2.3 0 4.201.506 5.704 1.518 1.533.981 2.683 2.315 3.45 4.002.767 1.686 1.15 3.542 1.15 5.566 0 1.073-.046 2.116-.138 3.128h-16.744c.276 2.238 1.058 3.986 2.346 5.244 1.288 1.257 2.99 1.886 5.106 1.886 1.38 0 2.622-.138 3.726-.414 1.104-.307 2.162-.69 3.174-1.15l.966 3.542c-1.104.49-2.346.889-3.726 1.196-1.38.337-2.929.506-4.646.506Zm-6.992-14.168h13.11c0-2.331-.583-4.125-1.748-5.382-1.165-1.258-2.775-1.886-4.83-1.886-1.779 0-3.251.628-4.416 1.886-1.165 1.226-1.871 3.02-2.116 5.382ZM188.322 280.495v-23.92h4.002v4.002c.859-1.288 1.947-2.362 3.266-3.22 1.319-.89 2.821-1.334 4.508-1.334 1.901 0 3.45.46 4.646 1.38 1.227.92 2.085 2.146 2.576 3.68.951-1.411 2.07-2.607 3.358-3.588 1.319-.982 2.944-1.472 4.876-1.472 2.607 0 4.539.828 5.796 2.484 1.288 1.625 1.932 3.756 1.932 6.394v15.594h-4.14v-15.272c0-1.656-.383-2.99-1.15-4.002-.767-1.043-1.825-1.564-3.174-1.564-1.38 0-2.668.521-3.864 1.564-1.165 1.012-2.193 2.208-3.082 3.588v15.686h-4.14v-15.272c0-1.656-.383-2.99-1.15-4.002-.767-1.043-1.825-1.564-3.174-1.564s-2.622.506-3.818 1.518c-1.196.981-2.239 2.146-3.128 3.496v15.824h-4.14ZM174.071 281.047c-.828 0-1.549-.307-2.162-.92-.613-.614-.92-1.334-.92-2.162 0-.951.276-1.702.828-2.254.552-.552 1.303-.828 2.254-.828.797 0 1.503.306 2.116.92.644.613.966 1.334.966 2.162 0 .92-.291 1.671-.874 2.254-.583.552-1.319.828-2.208.828ZM261.595 231.151c0-1.44.304-2.8.912-4.08.608-1.28 1.584-2.32 2.928-3.12 1.376-.8 3.2-1.2 5.472-1.2h16.224v4.32h-15.648c-1.952 0-3.456.416-4.512 1.248-1.024.832-1.536 2.048-1.536 3.648 0 1.312.256 2.576.768 3.792.544 1.248 1.264 2.352 2.16 3.312h18.768v4.32h-18.48c-1.376 0-2.288.288-2.736.864-.416.608-.624 1.264-.624 1.968l-3.36-.912c0-2.976 1.184-4.816 3.552-5.52-1.152-1.12-2.096-2.416-2.832-3.888-.704-1.472-1.056-3.056-1.056-4.752ZM261.595 197.658c0-1.888.24-3.6.72-5.136.48-1.504 1.104-2.752 1.872-3.744l3.6 1.824c-.704.832-1.296 1.872-1.776 3.12-.448 1.28-.672 2.64-.672 4.08 0 1.792.288 3.136.864 4.032.608.928 1.376 1.392 2.304 1.392.672 0 1.264-.176 1.776-.528.512-.32 1.008-.928 1.488-1.824.512-.896 1.056-2.192 1.632-3.888.8-2.336 1.744-4.096 2.832-5.28 1.12-1.152 2.656-1.728 4.608-1.728 1.92 0 3.536.832 4.848 2.496 1.344 1.696 2.016 4.032 2.016 7.008 0 1.6-.176 3.024-.528 4.272-.32 1.248-.736 2.368-1.248 3.36l-3.552-1.2c.512-.864.928-1.856 1.248-2.976.32-1.088.48-2.304.48-3.648 0-1.664-.336-2.928-1.008-3.792-.672-.864-1.408-1.296-2.208-1.296-.768 0-1.424.336-1.968 1.008-.544.672-1.136 1.984-1.776 3.936-1.056 3.168-2.224 5.376-3.504 6.624-1.28 1.248-2.88 1.872-4.8 1.872-2.24 0-4.016-.912-5.328-2.736-1.28-1.792-1.92-4.208-1.92-7.248ZM261.595 161.265c0-2.08.528-3.968 1.584-5.664 1.056-1.696 2.544-3.056 4.464-4.08 1.952-.992 4.24-1.488 6.864-1.488 2.496 0 4.736.496 6.72 1.488 1.984 1.024 3.552 2.416 4.704 4.176 1.184 1.792 1.776 3.84 1.776 6.144 0 1.44-.256 2.736-.768 3.888-.48 1.184-1.088 2.208-1.824 3.072h2.016v3.936h-18.912c-1.216 0-2.016.288-2.4.864-.352.608-.528 1.264-.528 1.968l-3.36-.912c0-3.072 1.248-4.928 3.744-5.568-1.024-.736-1.968-1.744-2.832-3.024-.832-1.248-1.248-2.848-1.248-4.8Zm3.84.96c0 1.216.288 2.368.864 3.456.608 1.088 1.36 2 2.256 2.736h13.392c.608-.864 1.088-1.824 1.44-2.88.384-1.024.576-2.112.576-3.264 0-1.536-.4-2.896-1.2-4.08-.768-1.152-1.856-2.064-3.264-2.736-1.376-.672-2.992-1.008-4.848-1.008-1.792 0-3.392.336-4.8 1.008-1.376.672-2.464 1.6-3.264 2.784-.768 1.184-1.152 2.512-1.152 3.984ZM261.595 132.708c0-2.4.784-4.304 2.352-5.712 1.6-1.376 3.872-2.064 6.816-2.064h11.712v-4.32h3.744v4.416l7.872.912v3.312h-7.872v6.912h-3.744v-6.912h-12.048c-1.856 0-3.152.384-3.888 1.152-.736.8-1.104 1.744-1.104 2.832 0 .8.128 1.552.384 2.256.256.736.56 1.408.912 2.016l-3.456 1.2c-.384-.64-.752-1.504-1.104-2.592-.384-1.088-.576-2.224-.576-3.408ZM261.595 94.299c0-2.08.528-3.968 1.584-5.664 1.056-1.696 2.544-3.056 4.464-4.08 1.952-.992 4.24-1.488 6.864-1.488 2.496 0 4.736.496 6.72 1.488 1.984 1.024 3.552 2.416 4.704 4.176 1.184 1.792 1.776 3.84 1.776 6.144 0 1.44-.256 2.736-.768 3.888-.48 1.184-1.088 2.208-1.824 3.072h2.016v3.936h-18.912c-1.216 0-2.016.288-2.4.864-.352.608-.528 1.264-.528 1.968l-3.36-.912c0-3.072 1.248-4.928 3.744-5.568-1.024-.736-1.968-1.744-2.832-3.024-.832-1.248-1.248-2.848-1.248-4.8Zm3.84.96c0 1.216.288 2.368.864 3.456.608 1.088 1.36 2 2.256 2.736h13.392c.608-.864 1.088-1.824 1.44-2.88.384-1.024.576-2.112.576-3.264 0-1.536-.4-2.896-1.2-4.08-.768-1.152-1.856-2.064-3.264-2.736-1.376-.672-2.992-1.008-4.848-1.008-1.792 0-3.392.336-4.8 1.008-1.376.672-2.464 1.6-3.264 2.784-.768 1.184-1.152 2.512-1.152 3.984ZM261.691 68.5665l13.296-12.912h-12.816v-4.32h35.52v4.32h-20.304l10.224 11.28-2.736 2.496-8.544-9.648-11.76 11.76-2.88-2.976Z"/>
</svg>
